# xmcd
#
# Track frame offsets: 
#        150
#        23845
#        78600
#        106875
#        146270
#        180222
#        217017
#        256340
#
# Disc length: 3870 seconds
#
# Revision: 0
# Processed by: cddbd v1.5.2PL0 Copyright (c) Steve Scherf et al.
# Submitted via: ExactAudioCopy v0.99pb5
#
DISCID=620f1c08
DTITLE=Eric Clapton  - E.C. Is Here - Disc 04 (DJ Copy 66)
DYEAR=1900
DGENRE=
TTITLE0=Can't Find My Way Home
TTITLE1=Ramblin' On My Mind
TTITLE2=Let It Rain
TTITLE3=Presence Of The Lord
TTITLE4=Crossroads
TTITLE5=Steady Rollin' Man
TTITLE6=Little Queenie
TTITLE7=Blues Power
EXTD=
EXTT0=
EXTT1=
EXTT2=
EXTT3=
EXTT4=
EXTT5=
EXTT6=
EXTT7=
PLAYORDER=
